<svg width="960" height="720" xmlns="http://www.w3.org/2000/svg" xmlns:xlink="http://www.w3.org/1999/xlink" overflow="hidden"><defs><clipPath id="clip0"><rect x="0" y="0" width="960" height="720"/></clipPath></defs><g clip-path="url(#clip0)"><rect x="0" y="0" width="960" height="720" fill="#FFFFFF"/><rect x="391.5" y="231.5" width="171" height="26" stroke="#4472C4" stroke-width="2.66667" stroke-linejoin="round" stroke-miterlimit="10" fill="#DEEBF7"/><text font-family="Arial,Arial_MSFontService,sans-serif" font-weight="700" font-size="14" transform="translate(433.258 249)">Pre<tspan font-size="14" x="22.6667" y="0">-</tspan><tspan font-size="14" x="27.3333" y="0">proposal</tspan></text><rect x="391.5" y="276.5" width="171" height="27" stroke="#4472C4" stroke-width="3" stroke-linejoin="round" stroke-miterlimit="10" fill="#DEEBF7"/><text font-family="Arial,Arial_MSFontService,sans-serif" font-weight="700" font-size="14" transform="translate(432.398 295)">Full Proposal</text><rect x="391" y="368" width="177" height="27" fill="#A9D18E"/><text font-family="Arial,Arial_MSFontService,sans-serif" font-weight="700" font-size="14" transform="translate(428.573 387)">Funded Project</text><rect x="391" y="187" width="174" height="27" fill="#AFABAB"/><text font-family="Arial,Arial_MSFontService,sans-serif" font-weight="700" font-size="14" transform="translate(440.19 206)">Solicitation</text><rect x="391.5" y="322.5" width="172" height="27" stroke="#4472C4" stroke-width="3" stroke-linejoin="round" stroke-miterlimit="10" fill="#DEEBF7"/><text font-family="Arial,Arial_MSFontService,sans-serif" font-weight="700" font-size="14" transform="translate(442.648 341)">Deep Dive</text><path d="M0-1.16667 57.084-1.16667 57.084 74.5679 54.7507 74.5679 54.7507 0 55.9174 1.16667 0 1.16667ZM59.9174 73.2345 55.9174 81.2345 51.9174 73.2345Z" fill="#0070C0" transform="matrix(-1 1.22465e-16 1.22465e-16 1 390.917 287)"/><path d="M0 0 55.302 0.000104987" stroke="#0070C0" stroke-width="2.33333" stroke-miterlimit="8" fill="none" fill-rule="evenodd" transform="matrix(-1 0 0 1 390.302 336)"/><rect x="268" y="368" width="115" height="26" fill="#A9D18E"/><text font-family="Arial,Arial_MSFontService,sans-serif" font-weight="700" font-size="14" transform="translate(296.546 387)">Seedling</text><path d="M478 215.5 478 224 475 224 475 215.5ZM481 222.5 476.5 231.5 472 222.5Z" fill="#4472C4"/><path d="M478 257.5 478 266 475 266 475 257.5ZM481 264.5 476.5 273.5 472 264.5Z" fill="#4472C4"/><path d="M478 303.5 478 312 475 312 475 303.5ZM481 310.5 476.5 319.5 472 310.5Z" fill="#4472C4"/><path d="M481 349.5 481 360.947 478 360.947 478 349.5ZM484 359.447 479.5 368.447 475 359.447Z" fill="#4472C4"/></g></svg>