<?xml version="1.0" encoding="UTF-8" standalone="no"?>
<!-- Created with Inkscape (http://www.inkscape.org/) -->

<svg
   version="1.1"
   id="svg2"
   xml:space="preserve"
   width="257.30667"
   height="116.16"
   viewBox="0 0 257.30667 116.16"
   sodipodi:docname="cinta.eps"
   xmlns:inkscape="http://www.inkscape.org/namespaces/inkscape"
   xmlns:sodipodi="http://sodipodi.sourceforge.net/DTD/sodipodi-0.dtd"
   xmlns="http://www.w3.org/2000/svg"
   xmlns:svg="http://www.w3.org/2000/svg"><defs
     id="defs6" /><sodipodi:namedview
     id="namedview4"
     pagecolor="#ffffff"
     bordercolor="#666666"
     borderopacity="1.0"
     inkscape:pageshadow="2"
     inkscape:pageopacity="0.0"
     inkscape:pagecheckerboard="0" /><g
     id="g8"
     inkscape:groupmode="layer"
     inkscape:label="ink_ext_XXXXXX"
     transform="matrix(1.3333333,0,0,-1.3333333,0,116.16)"><g
       id="g10"
       transform="scale(0.1)"><path
         d="M 1929.17,539.398 H 3.24219"
         style="fill:none;stroke:#93b413;stroke-width:7.5;stroke-linecap:butt;stroke-linejoin:miter;stroke-miterlimit:4;stroke-dasharray:none;stroke-opacity:1"
         id="path12" /><path
         d="m 1890.17,835.625 h 3.39 c 4.91,0 6.51,3.699 6.51,6.297 0,4.101 -2.9,5.504 -6.01,5.504 h -3.89 z m -9.51,17.598 h 15.4 c 8.51,0 13.71,-3.696 13.71,-10.2 0,-5.796 -3.1,-9.199 -6.9,-11.199 l 9.8,-16.504 -10,-1.394 -8.1,15.898 h -4.4 v -15.297 h -9.51 z m 42.71,-20.602 c 0,16.305 -13,30.199 -29.01,30.199 -15.99,0 -29.1,-13.894 -29.1,-30.199 0,-16.5 13.11,-30.394 29.1,-30.394 16.01,0 29.01,13.894 29.01,30.394 z m -64.5,0 c 0,19.805 15.9,36.106 35.49,36.106 19.51,0 35.41,-16.301 35.41,-36.106 0,-20 -15.9,-36.297 -35.41,-36.297 -19.59,0 -35.49,16.297 -35.49,36.297"
         style="fill:#155196;fill-opacity:1;fill-rule:nonzero;stroke:none"
         id="path14" /><path
         d="m 256.746,809.777 c -14.848,12.153 -48.598,27.446 -82.348,27.446 -77.8511,0 -123.7496,-55.801 -123.7496,-129.602 0,-79.648 54.8986,-133.191 123.7496,-133.191 34.2,0 61.204,10.8 79.649,23.394 l 17.101,-26.101 C 250,557.328 212.645,542.934 172.148,542.934 59.6484,542.934 2.5,619.879 2.5,706.723 c 0,79.199 62.0977,162.004 175.051,162.004 45,0 76.496,-15.754 97.199,-31.954 l -18.004,-26.996"
         style="fill:#155196;fill-opacity:1;fill-rule:nonzero;stroke:none"
         id="path16" /><path
         d="m 256.746,809.777 c -14.848,12.153 -48.598,27.446 -82.348,27.446 -77.8511,0 -123.7496,-55.801 -123.7496,-129.602 0,-79.648 54.8986,-133.191 123.7496,-133.191 34.2,0 61.204,10.8 79.649,23.394 l 17.101,-26.101 C 250,557.328 212.645,542.934 172.148,542.934 59.6484,542.934 2.5,619.879 2.5,706.723 c 0,79.199 62.0977,162.004 175.051,162.004 45,0 76.496,-15.754 97.199,-31.954 z"
         style="fill:none;stroke:#155196;stroke-width:5;stroke-linecap:butt;stroke-linejoin:miter;stroke-miterlimit:4;stroke-dasharray:none;stroke-opacity:1"
         id="path18" /><path
         d="m 481.293,548.324 v 315 h 43.652 v -315 h -43.652"
         style="fill:#155196;fill-opacity:1;fill-rule:nonzero;stroke:none"
         id="path20" /><path
         d="m 481.293,548.324 v 315 h 43.652 v -315 z"
         style="fill:none;stroke:#155196;stroke-width:5;stroke-linecap:butt;stroke-linejoin:miter;stroke-miterlimit:4;stroke-dasharray:none;stroke-opacity:1"
         id="path22" /><path
         d="m 1097.34,548.324 h -43.64 v 256.504 h -0.91 C 1040.2,767.926 968.641,628.871 926.344,548.324 H 908.793 C 869.645,628.871 804.395,763.422 792.246,804.828 h -0.902 V 548.324 h -36 v 315 h 46.801 c 40.5,-83.703 81,-167.851 121.046,-256.504 44.551,88.653 89.099,172.801 133.209,256.504 h 40.94 v -315"
         style="fill:#155196;fill-opacity:1;fill-rule:nonzero;stroke:none"
         id="path24" /><path
         d="m 1097.34,548.324 h -43.64 v 256.504 h -0.91 C 1040.2,767.926 968.641,628.871 926.344,548.324 H 908.793 C 869.645,628.871 804.395,763.422 792.246,804.828 h -0.902 V 548.324 h -36 v 315 h 46.801 c 40.5,-83.703 81,-167.851 121.046,-256.504 44.551,88.653 89.099,172.801 133.209,256.504 h 40.94 z"
         style="fill:none;stroke:#155196;stroke-width:5;stroke-linecap:butt;stroke-linejoin:miter;stroke-miterlimit:4;stroke-dasharray:none;stroke-opacity:1"
         id="path26" /><path
         d="m 1327.73,548.324 v 315 h 43.66 v -315 h -43.66"
         style="fill:#155196;fill-opacity:1;fill-rule:nonzero;stroke:none"
         id="path28" /><path
         d="m 1327.73,548.324 v 315 h 43.66 v -315 z"
         style="fill:none;stroke:#155196;stroke-width:5;stroke-linecap:butt;stroke-linejoin:miter;stroke-miterlimit:4;stroke-dasharray:none;stroke-opacity:1"
         id="path30" /><path
         d="M 1667.03,548.324 V 831.82 h -100.8 v 31.504 h 245.7 V 831.82 H 1710.68 V 548.324 h -43.65"
         style="fill:#155196;fill-opacity:1;fill-rule:nonzero;stroke:none"
         id="path32" /><path
         d="M 1667.03,548.324 V 831.82 h -100.8 v 31.504 h 245.7 V 831.82 H 1710.68 V 548.324 Z"
         style="fill:none;stroke:#155196;stroke-width:5;stroke-linecap:butt;stroke-linejoin:miter;stroke-miterlimit:4;stroke-dasharray:none;stroke-opacity:1"
         id="path34" /><path
         d="M 482.5,540 V 0"
         style="fill:none;stroke:#93b413;stroke-width:7.5;stroke-linecap:butt;stroke-linejoin:miter;stroke-miterlimit:4;stroke-dasharray:none;stroke-opacity:1"
         id="path36" /><g
         id="g38"
         transform="scale(10)"><text
           transform="matrix(0.994438,0,0,-1,75.5344,12.7367)"
           style="font-variant:normal;font-weight:600;font-size:34px;font-family:'Open Sans';-inkscape-font-specification:OpenSans-Semibold;writing-mode:lr-tb;fill:#93b413;fill-opacity:1;fill-rule:nonzero;stroke:none"
           id="text42"><tspan
             x="0 24.948864 38.724678 68.75399 91.395004"
             y="0"
             sodipodi:role="line"
             id="tspan40">CINTA</tspan></text></g></g></g></svg>
